<svg width="101" height="31" viewBox="0 0 101 31" fill="none" xmlns="http://www.w3.org/2000/svg">
<path d="M7.944 30.6C7.048 30.6 6.28 30.32 5.64 29.76C5.016 29.216 4.704 28.376 4.704 27.24C4.704 26.104 5.248 25.04 6.336 24.048C4.4 23.776 2.976 23.032 2.064 21.816C1.152 20.584 0.696 19 0.696 17.064C0.696 15.112 1.048 13.288 1.752 11.592C2.472 9.88 3.536 8.48 4.944 7.392C6.352 6.288 7.872 5.736 9.504 5.736C11.152 5.736 12.44 6.136 13.368 6.936C14.312 7.72 14.784 8.8 14.784 10.176C14.784 11.552 14.376 12.664 13.56 13.512C12.744 14.344 11.776 14.76 10.656 14.76C9.552 14.76 8.696 14.52 8.088 14.04C7.48 13.544 7.176 13.024 7.176 12.48C7.176 11.92 7.392 11.488 7.824 11.184C8.272 10.864 8.92 10.704 9.768 10.704C9.56 10.912 9.456 11.192 9.456 11.544C9.456 11.88 9.56 12.176 9.768 12.432C9.976 12.688 10.288 12.816 10.704 12.816C11.136 12.816 11.536 12.592 11.904 12.144C12.288 11.696 12.48 11.088 12.48 10.32C12.48 9.536 12.28 8.928 11.88 8.496C11.48 8.064 10.872 7.848 10.056 7.848C8.968 7.848 7.976 8.288 7.08 9.168C6.2 10.048 5.528 11.168 5.064 12.528C4.6 13.888 4.368 15.32 4.368 16.824C4.368 18.12 4.648 19.264 5.208 20.256C5.496 20.768 5.92 21.176 6.48 21.48C7.056 21.784 7.616 21.936 8.16 21.936C8.72 21.936 9.168 21.912 9.504 21.864L10.104 16.632H13.464L12.936 20.544C14.664 19.632 15.8 18.64 16.344 17.568L17.28 18.888C16.24 20.488 14.704 21.704 12.672 22.536L12.36 25.128C12.232 26.296 12 27.272 11.664 28.056C11.328 28.84 10.928 29.4 10.464 29.736C10.016 30.088 9.6 30.32 9.216 30.432C8.832 30.544 8.408 30.6 7.944 30.6ZM6.84 27.168C6.84 27.456 6.928 27.704 7.104 27.912C7.28 28.12 7.48 28.224 7.704 28.224C7.944 28.224 8.128 28.184 8.256 28.104C8.384 28.024 8.52 27.816 8.664 27.48C8.808 27.144 8.92 26.672 9 26.064L9.24 24.096C7.64 25.088 6.84 26.112 6.84 27.168ZM26.6132 12.696C25.9572 17.88 25.6292 20.64 25.6292 20.976C25.6292 21.616 25.8612 21.936 26.3252 21.936C26.7412 21.936 27.1892 21.656 27.6692 21.096C28.1652 20.52 28.5572 19.664 28.8452 18.528C29.3732 19.104 29.6932 19.552 29.8052 19.872C29.4372 21.424 28.8532 22.52 28.0532 23.16C27.2532 23.8 26.4292 24.12 25.5812 24.12C24.1892 24.12 23.2532 23.584 22.7732 22.512C21.9412 23.584 20.8292 24.12 19.4372 24.12C18.2852 24.12 17.3972 23.832 16.7732 23.256C16.1492 22.68 15.8372 21.928 15.8372 21C15.8372 20.776 15.8772 20.384 15.9572 19.824C16.3252 16.848 16.6052 14.48 16.7972 12.72C17.2932 12.544 17.7492 12.456 18.1652 12.456C18.5812 12.456 18.8932 12.472 19.1012 12.504C19.3092 12.536 19.5092 12.656 19.7012 12.864C19.8932 13.072 19.9892 13.368 19.9892 13.752L19.1972 19.872C19.1652 20.064 19.1492 20.24 19.1492 20.4C19.1492 21.344 19.5812 21.816 20.4452 21.816C21.2452 21.816 21.9092 21.424 22.4372 20.64C22.4372 20.464 22.4532 20.184 22.4852 19.8L23.2772 13.416C23.3892 13.144 23.6292 12.92 23.9972 12.744C24.3652 12.552 24.8212 12.456 25.3652 12.456C25.9252 12.456 26.3412 12.536 26.6132 12.696ZM29.8973 6.336C30.2653 5.952 30.7133 5.76 31.2413 5.76C31.7693 5.76 32.2173 5.952 32.5853 6.336C32.9693 6.704 33.1613 7.152 33.1613 7.68C33.1613 8.208 32.9693 8.656 32.5853 9.024C32.2173 9.392 31.7693 9.576 31.2413 9.576C30.7133 9.576 30.2653 9.392 29.8973 9.024C29.5293 8.656 29.3453 8.208 29.3453 7.68C29.3453 7.152 29.5293 6.704 29.8973 6.336ZM28.9133 13.368C29.0733 13.08 29.3773 12.864 29.8253 12.72C30.2733 12.56 30.7133 12.48 31.1453 12.48C31.5933 12.48 31.9853 12.536 32.3213 12.648C31.6973 17.464 31.3853 19.896 31.3853 19.944C31.3053 20.264 31.2653 20.536 31.2653 20.76C31.2653 20.968 31.2813 21.152 31.3133 21.312C31.3773 21.728 31.6653 21.936 32.1773 21.936C32.7053 21.936 33.1853 21.6 33.6172 20.928C34.0653 20.24 34.4013 19.464 34.6253 18.6C34.7373 18.664 34.9133 18.856 35.1533 19.176C35.3933 19.496 35.5373 19.736 35.5853 19.896C35.2653 21.176 34.7213 22.208 33.9533 22.992C33.1853 23.776 32.2653 24.168 31.1933 24.168C30.1213 24.168 29.3213 23.904 28.7933 23.376C28.2813 22.848 28.0253 22.168 28.0253 21.336C28.0253 21.16 28.0333 20.976 28.0493 20.784L28.9133 13.368ZM42.7959 6.696C42.9079 6.424 43.1559 6.2 43.5399 6.024C43.9399 5.832 44.4119 5.736 44.9559 5.736C45.5159 5.736 45.9319 5.816 46.2039 5.976C46.0439 7.224 45.7879 9.184 45.4359 11.856C44.6999 17.44 44.3319 20.52 44.3319 21.096C44.3319 21.656 44.5719 21.936 45.0519 21.936C45.4679 21.936 45.8999 21.68 46.3479 21.168C46.7959 20.64 47.2039 19.784 47.5719 18.6C48.0199 19.032 48.3319 19.504 48.5079 20.016C47.9319 21.92 47.0279 23.152 45.7959 23.712C45.2359 23.984 44.7079 24.12 44.2119 24.12C42.7879 24.12 41.8359 23.608 41.3559 22.584C40.5239 23.624 39.4599 24.144 38.1639 24.144C36.8679 24.144 35.7719 23.704 34.8759 22.824C33.9959 21.944 33.5559 20.784 33.5559 19.344C33.5559 17.248 34.1719 15.576 35.4039 14.328C36.6359 13.08 38.1959 12.456 40.0839 12.456C40.1319 12.456 40.1799 12.456 40.2279 12.456C40.8839 12.456 41.4999 12.552 42.0759 12.744L42.7959 6.696ZM40.4439 14.328C39.4199 14.328 38.6039 14.72 37.9959 15.504C37.4039 16.272 37.0519 17.424 36.9399 18.96C36.9239 19.104 36.9159 19.24 36.9159 19.368C36.9159 20.152 37.0999 20.776 37.4679 21.24C37.8519 21.704 38.3399 21.936 38.9319 21.936C39.9399 21.936 40.6999 21.224 41.2119 19.8L41.8359 14.64C41.3079 14.432 40.8439 14.328 40.4439 14.328ZM51.2404 18.624C52.2324 18.416 52.9684 18.016 53.4484 17.424C53.9444 16.832 54.1924 16.264 54.1924 15.72C54.1924 15.16 54.0404 14.784 53.7364 14.592C53.4484 14.384 53.1284 14.28 52.7764 14.28C52.0244 14.28 51.3604 14.704 50.7844 15.552C50.2244 16.384 49.9444 17.384 49.9444 18.552C49.9444 19.704 50.2164 20.568 50.7604 21.144C51.3204 21.704 52.0084 21.984 52.8244 21.984C54.0244 21.984 55.1764 21.568 56.2804 20.736C57.3844 19.904 58.2804 18.816 58.9684 17.472C59.3204 17.808 59.6404 18.224 59.9284 18.72C59.4004 19.92 58.4644 21.096 57.1204 22.248C56.4484 22.808 55.6484 23.264 54.7204 23.616C53.8084 23.968 52.8644 24.144 51.8884 24.144C50.2884 24.144 49.0244 23.656 48.0964 22.68C47.1044 21.624 46.6084 20.272 46.6084 18.624C46.6084 16.976 47.2244 15.536 48.4564 14.304C49.7044 13.072 51.1924 12.456 52.9204 12.456C54.1524 12.456 55.1524 12.728 55.9204 13.272C56.6884 13.8 57.0804 14.52 57.0964 15.432C57.0964 16.664 56.6004 17.664 55.6084 18.432C54.6324 19.2 53.2884 19.736 51.5764 20.04L51.2404 18.624ZM73.0041 5.904C73.3401 5.776 73.8121 5.712 74.4201 5.712C75.0281 5.712 75.5721 5.752 76.0521 5.832C75.5561 9.512 75.1641 12.848 74.8761 15.84C74.6041 18.816 74.4521 20.384 74.4201 20.544C74.4041 20.704 74.3961 20.848 74.3961 20.976C74.4121 21.392 74.6121 21.6 74.9961 21.6C75.9561 21.6 77.2921 20.496 79.0041 18.288C79.3081 19.136 79.4841 19.704 79.5321 19.992C78.7641 21.208 77.8361 22.208 76.7481 22.992C75.6761 23.76 74.6601 24.144 73.7001 24.144C72.7401 24.144 72.0761 23.896 71.7081 23.4C71.3401 22.904 71.1561 22.352 71.1561 21.744C71.1561 21.6 71.1721 21.32 71.2041 20.904C71.2521 20.488 71.5721 17.896 72.1641 13.128L68.2281 22.224H66.1881L65.0121 13.272L63.3321 20.712C63.0601 21.896 62.6121 22.768 61.9881 23.328C61.3801 23.888 60.7081 24.168 59.9721 24.168C59.2361 24.168 58.6361 23.952 58.1721 23.52C57.6761 23.056 57.4281 22.4 57.4281 21.552C57.4281 19.856 58.7401 18.408 61.3641 17.208C62.7881 10.376 63.5561 6.592 63.6681 5.856C64.0521 5.76 64.5641 5.712 65.2041 5.712C65.8601 5.712 66.3081 5.728 66.5481 5.76H66.7161L68.2041 16.92L73.0041 6.024V5.904ZM59.1321 21.144C59.1321 21.656 59.3321 21.912 59.7321 21.912C60.0041 21.912 60.2281 21.696 60.4041 21.264C60.6281 20.736 60.8121 20.04 60.9561 19.176C59.7401 19.864 59.1321 20.52 59.1321 21.144Z" fill="white"/>
<path d="M85.2567 13.2V12.3C85.2567 11.8226 85.4454 11.3648 85.7811 11.0272C86.1169 10.6896 86.5724 10.5 87.0473 10.5C87.5221 10.5 87.9776 10.6896 88.3134 11.0272C88.6492 11.3648 88.8378 11.8226 88.8378 12.3V13.2C88.8378 12.7226 89.0265 12.2648 89.3622 11.9272C89.698 11.5896 90.1535 11.4 90.6284 11.4C91.1032 11.4 91.5587 11.5896 91.8945 11.9272C92.2303 12.2648 92.4189 12.7226 92.4189 13.2V14.1C92.4189 13.6226 92.6076 13.1648 92.9433 12.8272C93.2791 12.4896 93.7346 12.3 94.2095 12.3C94.6843 12.3 95.1398 12.4896 95.4756 12.8272C95.8114 13.1648 96 13.6226 96 14.1V16.8C96 18.7096 95.2454 20.5409 93.9022 21.8912C92.5591 23.2414 90.7373 24 88.8378 24H87.0473C84.5405 24 83.0185 23.226 81.6846 21.894L78.4616 18.654C78.1535 18.311 77.9885 17.8621 78.0006 17.4002C78.0127 16.9383 78.2011 16.4988 78.5267 16.1727C78.8523 15.8465 79.2902 15.6587 79.7497 15.6482C80.2092 15.6376 80.6551 15.8051 80.9952 16.116L82.5709 17.7M85.2567 12.75V7.8C85.2567 7.32261 85.0681 6.86477 84.7323 6.52721C84.3965 6.18964 83.941 6 83.4662 6C82.9913 6 82.5358 6.18964 82.2001 6.52721C81.8643 6.86477 81.6756 7.32261 81.6756 7.8V16.8" stroke="white" stroke-width="2" stroke-linecap="round" stroke-linejoin="round"/>
</svg>
