<svg width="114" height="27" viewBox="0 0 114 27" fill="none" xmlns="http://www.w3.org/2000/svg">
<path d="M1.6 9.06L3.66 7H11.76L13.16 8.4V6.8H14.06V11.8H13.16V9.64L11.32 7.8H6.2V22.2H8.7L10.2 20.7V15.6H8.6V14.8H16.1V15.6H14.7V23H12.16L10.66 21.48L9.14 23H3.66L1.6 20.94V9.06ZM32.1992 22.2V23H27.8592L26.4592 21.58L25.0392 23H20.5592L18.6992 21.14V11.8H17.0992V11H21.3392L23.1992 12.86V22.2H24.5992L25.9992 20.8V11H28.7392L30.5992 12.86V22.2H32.1992ZM36.6377 9.4L33.5977 6.34L36.6577 3.3L39.6977 6.36L36.6377 9.4ZM40.7977 22.2V23H36.4577L34.5977 21.14V11.8H32.9977V11H37.3377L39.1977 12.86V22.2H40.7977ZM56.2114 22.2V23H51.8714L50.4714 21.58L49.0514 23H44.0514L42.1914 21.14V12.86L44.0514 11H48.9314L50.0114 12.08V6.2H48.4114V5.4H52.7514L54.6114 7.26V22.2H56.2114ZM50.0114 20.8V13.32L48.4914 11.8H46.8914V22.2H48.6114L50.0114 20.8ZM59.2663 23L57.4063 21.14V12.86L59.2663 11H66.9463L68.8063 12.86V16.14L66.9463 18H62.0063V22.2H66.6063L68.2863 20.52L68.9062 21.14L67.0463 23H59.2663ZM62.0063 11.8V17.2H64.2063V11.8H62.0063ZM90.2894 7.8V22.2H91.6894V23H83.6894V22.2H85.6894V7.92L81.7494 23H77.0494L72.7094 7.84V22.2H74.7094V23H70.2094V22.2H71.8094V7.8H70.2094V7H77.1694L81.2694 21.32L85.0094 7H91.6894V7.8H90.2894Z" fill="black"/>
<path d="M99 13V17C99 17.5304 99.2107 18.0391 99.5858 18.4142C99.9609 18.7893 100.47 19 101 19H105M97 5H101C102.105 5 103 5.89543 103 7V11C103 12.1046 102.105 13 101 13H97C95.8954 13 95 12.1046 95 11V7C95 5.89543 95.8954 5 97 5ZM107 15H111C112.105 15 113 15.8954 113 17V21C113 22.1046 112.105 23 111 23H107C105.895 23 105 22.1046 105 21V17C105 15.8954 105.895 15 107 15Z" stroke="black" stroke-width="2" stroke-linecap="round" stroke-linejoin="round"/>
</svg>
