<svg width="119" height="27" viewBox="0 0 119 27" fill="none" xmlns="http://www.w3.org/2000/svg">
<path d="M9.408 24.36C7.888 24.36 6.52 23.992 5.304 23.256C4.088 22.52 3.136 21.488 2.448 20.16C1.76 18.832 1.416 17.312 1.416 15.6C1.416 13.92 1.784 12.416 2.52 11.088C3.272 9.76 4.296 8.72 5.592 7.968C6.904 7.216 8.384 6.84 10.032 6.84C11.424 6.84 12.688 7.112 13.824 7.656C14.976 8.184 15.92 8.936 16.656 9.912C17.408 10.888 17.904 12.024 18.144 13.32H15.864C15.56 11.944 14.888 10.864 13.848 10.08C12.824 9.28 11.568 8.88 10.08 8.88C8.832 8.88 7.712 9.168 6.72 9.744C5.744 10.32 4.984 11.12 4.44 12.144C3.896 13.168 3.624 14.336 3.624 15.648C3.624 16.976 3.896 18.16 4.44 19.2C5 20.224 5.776 21.032 6.768 21.624C7.76 22.2 8.888 22.488 10.152 22.488C11.336 22.488 12.4 22.216 13.344 21.672C14.304 21.128 15.048 20.384 15.576 19.44C16.12 18.48 16.392 17.4 16.392 16.2V15.84H10.344V15.36H18.264V24H16.392V18.336C16.024 20.192 15.216 21.664 13.968 22.752C12.736 23.824 11.216 24.36 9.408 24.36ZM26.9996 24.24C25.9916 24.24 25.1116 24.008 24.3596 23.544C23.6236 23.08 23.0556 22.416 22.6556 21.552C22.2716 20.688 22.0796 19.672 22.0796 18.504V12H23.9996L24.0236 18.24C24.0236 19.536 24.3596 20.56 25.0316 21.312C25.7196 22.064 26.6476 22.44 27.8156 22.44C28.5196 22.44 29.1596 22.256 29.7356 21.888C30.3276 21.52 30.7916 21.016 31.1276 20.376C31.4636 19.736 31.6316 19.024 31.6316 18.24V12H33.5516V24H31.6316V20.232C31.3276 21.448 30.7596 22.424 29.9276 23.16C29.0956 23.88 28.1196 24.24 26.9996 24.24ZM38.1634 24V12H40.0834V24H38.1634ZM39.0034 10.296L37.8994 6.12H40.3714L39.2434 10.296H39.0034ZM48.9984 24.24C47.9744 24.24 47.0464 23.968 46.2144 23.424C45.3824 22.88 44.7264 22.136 44.2464 21.192C43.7664 20.232 43.5264 19.168 43.5264 18C43.5264 16.832 43.7664 15.776 44.2464 14.832C44.7264 13.872 45.3824 13.12 46.2144 12.576C47.0464 12.032 47.9744 11.76 48.9984 11.76C50.2144 11.76 51.2624 12.136 52.1424 12.888C53.0384 13.64 53.6704 14.64 54.0384 15.888V6.96H55.9344V24H54.0384V20.088C53.6704 21.352 53.0384 22.36 52.1424 23.112C51.2624 23.864 50.2144 24.24 48.9984 24.24ZM49.7664 22.44C50.5664 22.44 51.2944 22.248 51.9504 21.864C52.6064 21.464 53.1184 20.928 53.4864 20.256C53.8704 19.584 54.0624 18.832 54.0624 18C54.0624 17.168 53.8704 16.416 53.4864 15.744C53.1184 15.056 52.6064 14.52 51.9504 14.136C51.2944 13.736 50.5664 13.536 49.7664 13.536C48.9664 13.536 48.2384 13.736 47.5824 14.136C46.9264 14.52 46.4064 15.056 46.0224 15.744C45.6544 16.416 45.4704 17.168 45.4704 18C45.4704 18.832 45.6544 19.584 46.0224 20.256C46.4064 20.928 46.9264 21.464 47.5824 21.864C48.2384 22.248 48.9664 22.44 49.7664 22.44ZM65.6822 24.24C64.4982 24.24 63.4262 23.968 62.4662 23.424C61.5062 22.88 60.7462 22.144 60.1862 21.216C59.6422 20.272 59.3702 19.216 59.3702 18.048C59.3702 16.848 59.6502 15.776 60.2102 14.832C60.7702 13.872 61.5302 13.12 62.4902 12.576C63.4502 12.032 64.5222 11.76 65.7062 11.76C66.8742 11.76 67.9302 12.032 68.8742 12.576C69.8342 13.12 70.5862 13.872 71.1302 14.832C71.6902 15.776 71.9702 16.832 71.9702 18C71.9702 18.032 71.9702 18.072 71.9702 18.12C71.9702 18.168 71.9702 18.208 71.9702 18.24H61.2422C61.2742 19.04 61.4902 19.768 61.8902 20.424C62.2902 21.064 62.8182 21.576 63.4742 21.96C64.1462 22.328 64.8902 22.512 65.7062 22.512C66.6022 22.512 67.3942 22.312 68.0822 21.912C68.7702 21.496 69.2422 20.96 69.4982 20.304H71.5382C71.3942 21.008 71.0502 21.664 70.5062 22.272C69.9782 22.864 69.2982 23.344 68.4662 23.712C67.6342 24.064 66.7062 24.24 65.6822 24.24ZM70.1462 17.76C70.1142 16.96 69.8982 16.24 69.4982 15.6C69.0982 14.944 68.5622 14.432 67.8902 14.064C67.2342 13.68 66.5062 13.488 65.7062 13.488C64.9062 13.488 64.1702 13.68 63.4982 14.064C62.8422 14.432 62.3062 14.944 61.8902 15.6C61.4902 16.24 61.2742 16.96 61.2422 17.76H70.1462ZM75.8169 24V7.2H78.1689L84.6009 23.424L91.0329 7.2H93.3609V24H91.2009V8.208L84.8889 24H84.2889L77.9769 8.208V24H75.8169Z" fill="black"/>
<path d="M102.319 14V18C102.319 18.5304 102.546 19.0391 102.951 19.4142C103.356 19.7893 103.905 20 104.478 20H108.796M100.159 6H104.478C105.67 6 106.637 6.89543 106.637 8V12C106.637 13.1046 105.67 14 104.478 14H100.159C98.9667 14 98 13.1046 98 12V8C98 6.89543 98.9667 6 100.159 6ZM110.956 16H115.274C116.467 16 117.434 16.8954 117.434 18V22C117.434 23.1046 116.467 24 115.274 24H110.956C109.763 24 108.796 23.1046 108.796 22V18C108.796 16.8954 109.763 16 110.956 16Z" stroke="black" stroke-width="2" stroke-linecap="round" stroke-linejoin="round"/>
</svg>
